<mxfile host="app.diagrams.net" modified="2023-05-03T12:49:23.988Z" agent="Mozilla/5.0 (Macintosh; Intel Mac OS X 10_15_7) AppleWebKit/537.36 (KHTML, like Gecko) Chrome/112.0.0.0 Safari/537.36" version="21.2.7" etag="9gRlF6Tf_57_i0-VYgFv" type="github">
  <diagram name="第 1 页" id="1SpPiUTKRWL2VGJPx_Zo">
    <mxGraphModel>
      <root>
        <mxCell id="0" />
        <mxCell id="1" parent="0" />
      </root>
    </mxGraphModel>
  </diagram>
</mxfile>
